<?xml version="1.0" standalone="no"?>
<!DOCTYPE svg PUBLIC "-//W3C//DTD SVG 20010904//EN"
 "http://www.w3.org/TR/2001/REC-SVG-20010904/DTD/svg10.dtd">
<svg version="1.0" xmlns="http://www.w3.org/2000/svg"
 width="1024.000000pt" height="1024.000000pt" viewBox="0 0 1024.000000 1024.000000"
 preserveAspectRatio="xMidYMid meet">

<g transform="translate(0.000000,1024.000000) scale(0.100000,-0.100000)"
fill="#000000" stroke="none">
<path d="M0 5120 l0 -5120 5120 0 5120 0 -3 993 c-2 545 -4 997 -4 1002 0 6 2
1863 4 4128 l3 4117 -5120 0 -5120 0 0 -5120z m5084 4834 c19 -18 21 -65 4
-82 -20 -20 -65 -14 -82 10 -21 30 -20 44 4 68 24 24 53 26 74 4z m4318 -401
c37 -33 10 -93 -42 -93 -33 0 -52 21 -52 55 0 51 55 74 94 38z m-592 -693 c40
-21 76 -61 104 -119 15 -31 16 -309 16 -3542 l0 -3508 -21 -38 c-30 -54 -74
-98 -120 -118 -21 -10 -39 -22 -39 -27 0 -12 -7017 -10 -7025 2 -4 6 -28 22
-55 35 -28 14 -60 41 -75 62 l-25 38 0 1002 c0 582 -4 1003 -9 1003 -17 0 -21
33 -6 50 13 15 15 293 15 2542 l0 2525 28 36 c15 19 43 45 62 56 l35 21 3538
0 c3513 0 3538 0 3577 -20z m-8292 -1482 c21 -21 14 -57 -13 -70 -22 -10 -29
-9 -47 10 -19 18 -20 25 -10 47 13 27 49 34 70 13z m375 -3290 c32 -17 46 -39
47 -72 0 -71 -96 -105 -139 -50 -29 37 -26 70 8 105 32 31 50 35 84 17z m606
-1114 c12 -15 21 -37 21 -49 0 -36 -37 -75 -71 -75 -42 0 -64 14 -78 49 -10
24 -10 34 3 59 18 34 28 40 73 41 23 1 37 -6 52 -25z m-1042 -1296 c31 -29 30
-72 -2 -103 -30 -30 -64 -32 -99 -4 -33 26 -36 79 -6 109 27 27 77 26 107 -2z
m2550 -199 c16 -16 5 -39 -18 -39 -12 0 -19 7 -19 18 0 31 17 41 37 21z m4285
-726 c10 -9 18 -24 18 -34 0 -17 -35 -49 -52 -49 -11 0 -48 38 -48 50 0 14 37
50 52 50 6 0 20 -7 30 -17z m-623 -582 c7 -13 6 -23 -3 -36 -18 -25 -56 -11
-56 20 0 36 42 48 59 16z"/>
<path d="M1982 8098 l3 -363 358 -3 357 -2 0 365 0 365 -360 0 -360 0 2 -362z"/>
<path d="M7772 8098 l3 -363 357 -3 358 -2 2 361 c2 198 1 363 -1 365 -2 2
-166 4 -363 4 l-358 0 2 -362z"/>
<path d="M1982 6938 l3 -363 355 0 355 0 3 363 2 362 -360 0 -360 0 2 -362z"/>
<path d="M7774 6938 l1 -363 355 0 355 0 3 363 2 362 -359 0 -359 0 2 -362z"/>
<path d="M5235 6640 c-4 -6 -22 -60 -40 -118 -19 -59 -48 -152 -65 -207 -90
-283 -155 -489 -199 -630 l-37 -120 -119 -6 c-66 -4 -264 -8 -440 -10 -176 -1
-391 -5 -477 -8 l-157 -6 122 -90 c138 -101 810 -597 815 -601 4 -3 4 -4 -96
-329 -195 -633 -242 -789 -240 -796 2 -4 212 145 468 332 256 187 470 342 476
345 9 4 825 -579 953 -680 12 -9 13 -6 7 19 -6 27 -147 461 -287 891 -28 83
-51 163 -52 179 -2 27 28 50 463 368 256 186 466 342 468 347 2 4 -258 11
-578 15 -521 7 -581 9 -589 24 -5 9 -20 50 -34 91 -15 41 -47 134 -73 205 -25
72 -52 148 -59 170 -8 22 -29 85 -49 140 -19 55 -64 185 -101 290 -36 104 -67
191 -69 193 -2 2 -7 -2 -11 -8z"/>
<path d="M1984 6141 c-2 -2 -4 -166 -4 -363 l0 -358 360 0 360 0 -2 360 -3
361 -353 2 c-195 1 -356 0 -358 -2z"/>
<path d="M7774 6141 c-2 -2 -4 -166 -4 -363 l0 -358 360 0 360 0 -2 360 -3
361 -353 2 c-195 1 -356 0 -358 -2z m347 -22 c29 -15 41 -54 27 -84 -21 -46
-102 -46 -114 0 -16 65 34 113 87 84z"/>
<path d="M1987 4983 c-4 -3 -7 -168 -7 -365 l0 -358 360 0 360 0 0 365 0 365
-353 0 c-195 0 -357 -3 -360 -7z m233 -523 c45 -45 11 -120 -53 -120 -42 0
-68 27 -69 71 -2 60 78 93 122 49z"/>
<path d="M7775 4977 c-3 -6 -4 -170 -3 -362 l3 -350 357 -3 358 -2 2 361 c2
198 1 363 -1 365 -2 2 -163 4 -358 4 -275 0 -355 -3 -358 -13z"/>
<path d="M1982 3468 l3 -363 358 -3 357 -2 0 365 0 365 -360 0 -360 0 2 -362z"/>
<path d="M7772 3468 l3 -363 358 -3 357 -2 0 365 0 365 -360 0 -360 0 2 -362z"/>
<path d="M1980 2310 l0 -360 360 0 360 0 0 360 0 360 -360 0 -360 0 0 -360z"/>
<path d="M7770 2310 l0 -360 360 0 360 0 0 360 0 360 -360 0 -360 0 0 -360z"/>
</g>
</svg>
